# File created by Blade
# Date/Time:  Mon Sep 22 15:39:46 2014
# Frame Rate: 120.000 fps
#------------------------------------------------------
:FULLY-SPECIFIED
:DEGREES
3762
root 0.071396 36.992583 2.903969 2.432717 -22.512434 -1.412465
RightUpLeg 5.729473 9.095413 1.778239
RightLeg -5.904721 -0.000000 0.000000
RightFoot -10.157832 -10.607433 14.562154
RightToeBase 14.860661 -0.000000 -0.000000
LeftUpLeg 10.550521 16.928649 7.387459
LeftLeg -4.042331 -0.000000 0.000000
LeftFoot -11.842968 17.175924 -22.067490
LeftToeBase 6.865434 -0.000000 -0.000000
Spine 3.821344 -38.006260 -9.832167
RightShoulder -16.127049 -13.925251 -23.686701
RightArm -327.281518 96.847800 -274.627374
RightForeArm 93.764804 -0.000000 149.333850
RightHand 16.868961 -0.000000 47.420774
RightHandThumb1 -24.326973 -0.000000 -32.862282
LeftShoulder -19.493807 43.425180 -4.337692
LeftArm 25.052370 3.035474 -70.941017
LeftForeArm 20.334927 -0.000000 42.494937
LeftHand -17.467994 -0.000000 -9.358120
LeftHandThumb1 -26.253704 0.000000 33.147579
Head 5.772074 -30.580158 4.609796
3763
root 0.068831 36.992458 2.892260 2.523802 -22.435970 -1.420240
RightUpLeg 5.665192 8.981846 1.778556
RightLeg -5.974842 -0.000000 0.000000
RightFoot -10.103030 -10.569477 14.562464
RightToeBase 14.861431 -0.000000 -0.000000
LeftUpLeg 10.449193 16.843961 7.379056
LeftLeg -4.083283 -0.000000 0.000000
LeftFoot -11.825276 17.156297 -22.103598
LeftToeBase 6.875274 -0.000000 -0.000000
Spine 3.774820 -38.121419 -9.875875
RightShoulder -15.902902 -14.680000 -23.017145
RightArm -334.596307 97.696625 -281.865262
RightForeArm 94.138053 -0.000000 148.295860
RightHand 17.669135 0.000000 46.798730
RightHandThumb1 -24.326973 -0.000000 -32.862282
LeftShoulder -19.496664 43.561089 -4.357951
LeftArm 24.821107 2.960209 -71.086853
LeftForeArm 20.115300 -0.000000 42.868842
LeftHand -17.558890 0.000000 -8.899740
LeftHandThumb1 -26.253704 0.000000 33.147579
Head 5.833013 -30.546409 4.878117
3764
root 0.063648 36.991318 2.884358 2.631922 -22.355966 -1.447856
RightUpLeg 5.603309 8.875527 1.797919
RightLeg -6.052949 -0.000000 0.000000
RightFoot -10.051645 -10.537983 14.575712
RightToeBase 14.860188 -0.000000 -0.000000
LeftUpLeg 10.357239 16.859344 7.399980
LeftLeg -4.141667 -0.000000 0.000000
LeftFoot -11.719628 17.069503 -21.995378
LeftToeBase 6.751755 -0.000000 -0.000000
Spine 3.715316 -38.184423 -9.893607
RightShoulder -16.264279 -16.209363 -22.308309
RightArm -346.523975 97.071911 -293.397314
RightForeArm 92.858448 0.000000 146.769048
RightHand 17.973522 -0.000000 45.227124
RightHandThumb1 -24.326973 -0.000000 -32.862282
LeftShoulder -19.470083 43.703351 -4.335950
LeftArm 24.664243 2.993156 -71.187893
LeftForeArm 19.705402 -0.000000 43.168554
LeftHand -17.677424 -0.000000 -8.656791
LeftHandThumb1 -26.253704 0.000000 33.147579
Head 5.885259 -30.610905 5.173773
3765
root 0.053665 36.990342 2.883723 2.729660 -22.329233 -1.477250
RightUpLeg 5.568572 8.839079 1.820399
RightLeg -6.140603 -0.000000 0.000000
RightFoot -9.996964 -10.514712 14.591028
RightToeBase 14.864255 -0.000000 -0.000000
LeftUpLeg 10.328050 16.974411 7.444944
LeftLeg -4.251641 -0.000000 0.000000
LeftFoot -11.661037 16.938845 -22.071520
LeftToeBase 6.826016 -0.000000 -0.000000
Spine 3.619428 -38.238896 -9.905518
RightShoulder -16.414915 -16.105500 -22.279321
RightArm -343.704141 95.232280 -290.125793
RightForeArm 92.663878 -0.000000 145.127586
RightHand 17.197868 -0.000000 43.315257
RightHandThumb1 -24.326973 -0.000000 -32.862282
LeftShoulder -19.482949 43.832466 -4.275706
LeftArm 24.502940 3.096907 -71.313887
LeftForeArm 19.513298 -0.000000 43.315995
LeftHand -17.628049 -0.000000 -8.432984
LeftHandThumb1 -26.253704 0.000000 33.147579
Head 6.006593 -30.617809 5.420136
3766
root 0.048875 36.991497 2.882786 2.842715 -22.259296 -1.489508
RightUpLeg 5.497430 8.751818 1.822218
RightLeg -6.203040 -0.000000 0.000000
RightFoot -9.955298 -10.482398 14.628462
RightToeBase 14.852435 -0.000000 -0.000000
LeftUpLeg 10.249118 17.001838 7.444444
LeftLeg -4.342114 -0.000000 0.000000
LeftFoot -11.578321 16.880468 -22.067921
LeftToeBase 6.829738 -0.000000 -0.000000
Spine 3.480204 -38.418039 -9.881291
RightShoulder -16.138991 -15.413610 -22.577241
RightArm -323.000092 93.697071 -268.955791
RightForeArm 93.168416 -0.000000 143.582517
RightHand 17.059288 -0.000000 41.530982
RightHandThumb1 -24.326973 -0.000000 -32.862282
LeftShoulder -19.585262 43.905567 -4.325565
LeftArm 24.352047 3.300230 -71.353672
LeftForeArm 19.151912 -0.000000 43.386546
LeftHand -17.982843 -0.000000 -7.917503
LeftHandThumb1 -26.253704 0.000000 33.147579
Head 6.165900 -30.547209 5.542508
